HIERARCHY
ROOT Hips
{
	OFFSET 0.000000 0.000000 0.000000
	CHANNELS 6 Xposition Yposition Zposition Zrotation Yrotation Xrotation 
	JOINT LowerBack
	{
		OFFSET 0.000000 0.000000 0.000000
		CHANNELS 3 Zrotation Yrotation Xrotation
		JOINT Spine
		{
			OFFSET 0.028270 2.035590 -0.193380
			CHANNELS 3 Zrotation Yrotation Xrotation
			JOINT Spine1
			{
				OFFSET 0.056720 2.048850 -0.042750
				CHANNELS 3 Zrotation Yrotation Xrotation
				JOINT Neck
				{
					OFFSET 0.000000 0.000000 0.000000
					CHANNELS 3 Zrotation Yrotation Xrotation
					JOINT Neck1
					{
						OFFSET -0.054170 1.746240 0.172020
						CHANNELS 3 Zrotation Yrotation Xrotation
						JOINT Head
						{
							OFFSET 0.104070 1.761360 -0.123970
							CHANNELS 3 Zrotation Yrotation Xrotation
							End Site
							{
								OFFSET 0.000000 0.000000 0.000000
							}
						}
					}
				}
				JOINT LeftShoulder
				{
					OFFSET 0.000000 0.000000 0.000000
					CHANNELS 3 Zrotation Yrotation Xrotation
					JOINT LeftArm
					{
						OFFSET 3.362410 1.200890 -0.311210
						CHANNELS 3 Zrotation Yrotation Xrotation
						JOINT LeftForeArm
						{
							OFFSET 4.983000 -0.000000 -0.000000
							CHANNELS 3 Zrotation Yrotation Xrotation
							JOINT LeftHand
							{
								OFFSET 3.483560 -0.000000 -0.000000
								CHANNELS 3 Zrotation Yrotation Xrotation
								JOINT LeftFingerBase
								{
									OFFSET 0.000000 0.000000 0.000000
									CHANNELS 3 Zrotation Yrotation Xrotation
									JOINT LeftHandIndex1
									{
										OFFSET 0.715260 -0.000000 -0.000000
										CHANNELS 3 Zrotation Yrotation Xrotation
										End Site
										{
											OFFSET 0.000000 0.000000 0.000000
										}
									}
								}
								JOINT LThumb
								{
									OFFSET 0.000000 0.000000 0.000000
									CHANNELS 3 Zrotation Yrotation Xrotation
									End Site
									{
										OFFSET 0.000000 0.000000 0.000000
									}
								}
							}
						}
					}
				}
				JOINT RightShoulder
				{
					OFFSET 0.000000 0.000000 0.000000
					CHANNELS 3 Zrotation Yrotation Xrotation
					JOINT RightArm
					{
						OFFSET -3.136600 1.374050 -0.404650
						CHANNELS 3 Zrotation Yrotation Xrotation
						JOINT RightForeArm
						{
							OFFSET -5.241900 -0.000000 -0.000000
							CHANNELS 3 Zrotation Yrotation Xrotation
							JOINT RightHand
							{
								OFFSET -3.444170 -0.000000 -0.000000
								CHANNELS 3 Zrotation Yrotation Xrotation
								JOINT RightFingerBase
								{
									OFFSET 0.000000 0.000000 0.000000
									CHANNELS 3 Zrotation Yrotation Xrotation
									JOINT RightHandIndex1
									{
										OFFSET -0.622530 -0.000000 -0.000000
										CHANNELS 3 Zrotation Yrotation Xrotation
										End Site
										{
											OFFSET 0.000000 0.000000 0.000000
										}
									}
								}
								JOINT RThumb
								{
									OFFSET 0.000000 0.000000 0.000000
									CHANNELS 3 Zrotation Yrotation Xrotation
									End Site
									{
										OFFSET 0.000000 0.000000 0.000000
									}
								}
							}
						}
					}
				}
			}
		}
	}
}
}
MOTION
Frames: 15
Frame Time: 0.008333
1.173822 17.108650 2.334882 -6.894930 -73.756611 24.336440 -5.856502 -2.798463 0.851704 -1.778997 -2.518495 -2.531839 -5.660719 -2.535212 0.635381 10.304585 -15.194923 -9.484337 -0.808108 -0.021349 -0.582574 0.000000 0.000000 0.000000 3.580153 6.738281 1.526777 -44.698169 16.826197 31.040331 -1.614310 -66.749140 0.012315 -6.409014 -7.605563 0.431615 -0.008262 0.090479 0.000000 0.000000 0.000000 0.000000 0.000000 0.000000 0.000000 6.544920 -11.509680 1.864571 56.214021 -6.893892 31.560786 1.909609 53.128886 0.016722 -0.113750 8.243593 -0.014806 0.104324 -0.102637 0.000000 0.000000 0.000000 0.000000 0.000000 0.000000 0.000000 
1.189297 17.105536 2.349835 -7.246747 -73.409103 24.227121 -5.855030 -2.842611 1.068817 -1.780170 -2.564664 -2.486982 -5.669480 -2.576791 0.623323 10.316193 -15.306379 -9.428412 -0.783248 -0.020087 -0.568399 0.000000 0.000000 0.000000 3.684330 6.575070 1.514381 -44.412197 16.604177 31.055532 -1.592586 -66.940992 0.012214 -6.461548 -7.579060 0.433899 -0.005685 0.092201 0.000000 0.000000 0.000000 0.000000 0.000000 0.000000 0.000000 6.445977 -11.642866 1.839043 56.346282 -7.076517 31.609588 1.886762 53.320816 0.016496 -0.097096 8.252974 -0.013516 0.102563 -0.102653 0.000000 0.000000 0.000000 0.000000 0.000000 0.000000 0.000000 
1.204639 17.102837 2.364149 -7.635743 -73.031082 24.145722 -5.833868 -2.894675 1.283239 -1.776604 -2.620142 -2.441722 -5.676608 -2.627528 0.615167 10.332373 -15.449934 -9.369736 -0.755793 -0.018691 -0.553097 0.000000 0.000000 0.000000 3.802223 6.402701 1.497045 -44.118674 16.388177 31.086641 -1.569364 -67.138466 0.012095 -6.523041 -7.557732 0.437180 -0.002767 0.094051 0.000000 0.000000 0.000000 0.000000 0.000000 0.000000 0.000000 6.346563 -11.815713 1.809365 56.450141 -7.256022 31.674350 1.860540 53.565173 0.016265 -0.092564 8.265047 -0.013125 0.100879 -0.102779 0.000000 0.000000 0.000000 0.000000 0.000000 0.000000 0.000000 
1.219845 17.100733 2.377881 -8.063624 -72.622184 24.092320 -5.792723 -2.954536 1.496060 -1.768476 -2.684854 -2.395984 -5.682817 -2.687365 0.610454 10.353927 -15.623374 -9.307867 -0.726480 -0.017230 -0.536571 0.000000 0.000000 0.000000 3.934702 6.219821 1.474458 -43.818531 16.182028 31.127448 -1.544440 -67.344739 0.011960 -6.593073 -7.541664 0.441257 0.000513 0.096044 0.000000 0.000000 0.000000 0.000000 0.000000 0.000000 0.000000 6.249912 -12.025811 1.775841 56.526178 -7.432263 31.748206 1.831730 53.851360 0.016034 -0.099247 8.281621 -0.013534 0.099281 -0.103006 0.000000 0.000000 0.000000 0.000000 0.000000 0.000000 0.000000 
1.234624 17.099357 2.391027 -8.529400 -72.185641 24.071991 -5.732538 -3.021546 1.702612 -1.756145 -2.758092 -2.350701 -5.688505 -2.755696 0.609503 10.381111 -15.823623 -9.242652 -0.695878 -0.015759 -0.518757 0.000000 0.000000 0.000000 4.083230 6.028455 1.446366 -43.512950 15.987808 31.173783 -1.517731 -67.561116 0.011810 -6.670163 -7.530043 0.446032 0.004135 0.098193 0.000000 0.000000 0.000000 0.000000 0.000000 0.000000 0.000000 6.158247 -12.269748 1.738675 56.575871 -7.604780 31.825567 1.801214 54.166392 0.015810 -0.115729 8.303421 -0.014643 0.097786 -0.103307 0.000000 0.000000 0.000000 0.000000 0.000000 0.000000 0.000000 
1.248825 17.098833 2.403573 -9.028468 -71.727588 24.085757 -5.657941 -3.095101 1.896212 -1.740686 -2.838982 -2.307116 -5.693993 -2.831772 0.612778 10.414251 -16.046001 -9.174347 -0.664673 -0.014333 -0.499694 0.000000 0.000000 0.000000 4.251794 5.833674 1.412617 -43.205423 15.803221 31.222543 -1.489284 -67.785992 0.011657 -6.749875 -7.525896 0.451503 0.008035 0.100571 0.000000 0.000000 0.000000 0.000000 0.000000 0.000000 0.000000 6.074571 -12.542201 1.697768 56.601864 -7.774004 31.900999 1.769714 54.497284 0.015592 -0.138724 8.327899 -0.016249 0.096376 -0.103631 0.000000 0.000000 0.000000 0.000000 0.000000 0.000000 0.000000 
1.262674 17.099416 2.415644 -9.575387 -71.255023 24.145345 -5.565823 -3.173388 2.079751 -1.721786 -2.925846 -2.265190 -5.700220 -2.913971 0.618344 10.451448 -16.282718 -9.102087 -0.633724 -0.013036 -0.479236 0.000000 0.000000 0.000000 4.435684 5.631854 1.373488 -42.895443 15.639917 31.261788 -1.458878 -68.026791 0.011490 -6.832407 -7.522299 0.457174 0.012216 0.103103 0.000000 0.000000 0.000000 0.000000 0.000000 0.000000 0.000000 5.998012 -12.833393 1.654612 56.609677 -7.937433 31.966693 1.738628 54.825422 0.015389 -0.166029 8.359454 -0.018255 0.095062 -0.103979 0.000000 0.000000 0.000000 0.000000 0.000000 0.000000 0.000000 
1.275967 17.101222 2.427176 -10.162307 -70.778085 24.250456 -5.461780 -3.255106 2.247243 -1.700652 -3.017018 -2.226021 -5.707152 -3.000751 0.626585 10.491985 -16.526958 -9.026262 -0.603575 -0.011906 -0.457504 0.000000 0.000000 0.000000 4.637623 5.429910 1.329297 -42.586429 15.494203 31.288860 -1.426740 -68.280900 0.011330 -6.912165 -7.522479 0.462943 0.016572 0.105859 0.000000 0.000000 0.000000 0.000000 0.000000 0.000000 0.000000 5.929683 -13.135304 1.609327 56.603159 -8.095416 32.018623 1.708604 55.138624 0.015200 -0.193170 8.394242 -0.020264 0.093811 -0.104293 0.000000 0.000000 0.000000 0.000000 0.000000 0.000000 0.000000 
1.288879 17.104404 2.438198 -10.793392 -70.306974 24.405721 -5.347742 -3.338536 2.398297 -1.677848 -3.110614 -2.190009 -5.715208 -3.090303 0.636130 10.534070 -16.770188 -8.946642 -0.574887 -0.010997 -0.434507 0.000000 0.000000 0.000000 4.856045 5.228799 1.280536 -42.279728 15.371919 31.297235 -1.392908 -68.551278 0.011173 -6.986500 -7.525239 0.468611 0.021047 0.108838 0.000000 0.000000 0.000000 0.000000 0.000000 0.000000 0.000000 5.868778 -13.437290 1.562872 56.587645 -8.247508 32.052491 1.680419 55.424843 0.015021 -0.216181 8.430396 -0.022071 0.092593 -0.104543 0.000000 0.000000 0.000000 0.000000 0.000000 0.000000 0.000000 
1.301558 17.109112 2.448772 -11.477475 -69.852616 24.619288 -5.223528 -3.421390 2.535214 -1.653534 -3.204262 -2.157058 -5.724787 -3.180295 0.645497 10.575510 -17.003962 -8.863042 -0.548191 -0.010351 -0.410309 0.000000 0.000000 0.000000 5.087143 5.029383 1.228082 -41.975356 15.277409 31.280960 -1.357495 -68.840821 0.011021 -7.053773 -7.526527 0.473576 0.025586 0.111989 0.000000 0.000000 0.000000 0.000000 0.000000 0.000000 0.000000 5.813379 -13.728564 1.516383 56.567395 -8.392285 32.065788 1.654736 55.674705 0.014861 -0.231982 8.467822 -0.023178 0.091384 -0.104718 0.000000 0.000000 0.000000 0.000000 0.000000 0.000000 0.000000 
1.314059 17.115289 2.458733 -12.197211 -69.422638 24.878352 -5.098629 -3.503818 2.653635 -1.629436 -3.297556 -2.127635 -5.735009 -3.270355 0.655627 10.616288 -17.222837 -8.776745 -0.523528 -0.009942 -0.385296 0.000000 0.000000 0.000000 5.338394 4.842786 1.172523 -41.680710 15.198959 31.244366 -1.321108 -69.139551 0.010893 -7.107010 -7.536678 0.478344 0.030058 0.115477 0.000000 0.000000 0.000000 0.000000 0.000000 0.000000 0.000000 5.764495 -14.003261 1.469206 56.544775 -8.529891 32.060915 1.631263 55.886463 0.014693 -0.234860 8.497297 -0.023487 0.090097 -0.104742 0.000000 0.000000 0.000000 0.000000 0.000000 0.000000 0.000000 
1.326820 17.123068 2.468252 -12.980638 -69.025144 25.200918 -4.965334 -3.582546 2.763412 -1.604354 -3.387511 -2.100504 -5.746940 -3.357438 0.663714 10.653707 -17.420258 -8.687263 -0.501429 -0.009813 -0.359505 0.000000 0.000000 0.000000 5.599258 4.664219 1.114982 -41.391200 15.146181 31.181073 -1.283706 -69.454965 0.010777 -7.149496 -7.544872 0.482212 0.034481 0.119123 0.000000 0.000000 0.000000 0.000000 0.000000 0.000000 0.000000 5.718961 -14.251889 1.423114 56.522728 -8.657723 32.038231 1.610551 56.055925 0.014534 -0.224617 8.523178 -0.022696 0.088732 -0.104660 0.000000 0.000000 0.000000 0.000000 0.000000 0.000000 0.000000 
1.339822 17.132438 2.477335 -13.827158 -68.664749 25.587013 -4.824480 -3.656611 2.866722 -1.578476 -3.473032 -2.075308 -5.760530 -3.440426 0.669214 10.687134 -17.592310 -8.594942 -0.482031 -0.009964 -0.333111 0.000000 0.000000 0.000000 5.867874 4.496211 1.056405 -41.106328 15.117287 31.093995 -1.245617 -69.785448 0.010673 -7.182057 -7.549753 0.485178 0.038827 0.122880 0.000000 0.000000 0.000000 0.000000 0.000000 0.000000 0.000000 5.676404 -14.469629 1.378313 56.500762 -8.776494 32.002356 1.592300 56.187300 0.014370 -0.199684 8.542869 -0.020706 0.087253 -0.104464 0.000000 0.000000 0.000000 0.000000 0.000000 0.000000 0.000000 
1.353186 17.143230 2.485946 -14.733377 -68.340188 26.031469 -4.677811 -3.726524 2.964706 -1.551971 -3.554483 -2.051592 -5.775131 -3.519635 0.672596 10.716632 -17.738629 -8.500636 -0.465167 -0.010358 -0.306391 0.000000 0.000000 0.000000 6.146981 4.343431 0.997210 -40.831066 15.103373 30.988309 -1.207406 -70.122233 0.010583 -7.202740 -7.558439 0.487647 0.043051 0.126833 0.000000 0.000000 0.000000 0.000000 0.000000 0.000000 0.000000 5.637013 -14.656546 1.334333 56.477030 -8.883321 31.960997 1.575900 56.286410 0.014193 -0.158808 8.552490 -0.017517 0.085617 -0.104138 0.000000 0.000000 0.000000 0.000000 0.000000 0.000000 0.000000 
1.367037 17.155404 2.494175 -15.709059 -68.049564 26.539112 -4.520694 -3.791389 3.062018 -1.523937 -3.631121 -2.028605 -5.790931 -3.594260 0.673172 10.741637 -17.859305 -8.404546 -0.450881 -0.010992 -0.279459 0.000000 0.000000 0.000000 6.431321 4.205123 0.938142 -40.563189 15.102331 30.867950 -1.169349 -70.463923 0.010501 -7.215515 -7.566933 0.489515 0.047182 0.130875 0.000000 0.000000 0.000000 0.000000 0.000000 0.000000 0.000000 5.600183 -14.812319 1.291303 56.448777 -8.977980 31.920301 1.560916 56.361023 0.014002 -0.103493 8.553511 -0.013230 0.083817 -0.103711 0.000000 0.000000 0.000000 0.000000 0.000000 0.000000 0.000000 
